<svg width="96" height="96" viewBox="0 0 96 96" fill="none" xmlns="http://www.w3.org/2000/svg">
  <rect width="96" height="96" rx="24" fill="#1E1706"/>
  <rect x="10" y="10" width="76" height="76" rx="20" fill="#2B230A" stroke="#FFD95A" stroke-opacity="0.35"/>
  <path d="M48 24L58 34L48 44L38 34L48 24Z" fill="#F0B90B"/>
  <path d="M32 40L40 48L32 56L24 48L32 40Z" fill="#F0B90B"/>
  <path d="M64 40L72 48L64 56L56 48L64 40Z" fill="#F0B90B"/>
  <path d="M48 40L56 48L48 56L40 48L48 40Z" fill="#F0B90B"/>
  <path d="M48 56L58 66L48 76L38 66L48 56Z" fill="#F0B90B"/>
  <text x="48" y="86" text-anchor="middle" fill="white" font-family="Arial, sans-serif" font-size="11" font-weight="700">USDT BEP20</text>
</svg>
